<svg id="visual" viewBox="0 0 900 600" width="900" height="600" xmlns="http://www.w3.org/2000/svg" xmlns:xlink="http://www.w3.org/1999/xlink" version="1.1"><path d="M0 294L15 294.7C30 295.3 60 296.7 90 309.8C120 323 150 348 180 357.7C210 367.3 240 361.7 270 359.2C300 356.7 330 357.3 360 354.3C390 351.3 420 344.7 450 338.3C480 332 510 326 540 325.3C570 324.7 600 329.3 630 338.5C660 347.7 690 361.3 720 364.5C750 367.7 780 360.3 810 353.5C840 346.7 870 340.3 885 337.2L900 334L900 601L885 601C870 601 840 601 810 601C780 601 750 601 720 601C690 601 660 601 630 601C600 601 570 601 540 601C510 601 480 601 450 601C420 601 390 601 360 601C330 601 300 601 270 601C240 601 210 601 180 601C150 601 120 601 90 601C60 601 30 601 15 601L0 601Z" fill="#eac696"></path><path d="M0 348L15 357.3C30 366.7 60 385.3 90 383.3C120 381.3 150 358.7 180 349C210 339.3 240 342.7 270 342.8C300 343 330 340 360 341.8C390 343.7 420 350.3 450 358.8C480 367.3 510 377.7 540 372.7C570 367.7 600 347.3 630 345.8C660 344.3 690 361.7 720 368.3C750 375 780 371 810 371.5C840 372 870 377 885 379.5L900 382L900 601L885 601C870 601 840 601 810 601C780 601 750 601 720 601C690 601 660 601 630 601C600 601 570 601 540 601C510 601 480 601 450 601C420 601 390 601 360 601C330 601 300 601 270 601C240 601 210 601 180 601C150 601 120 601 90 601C60 601 30 601 15 601L0 601Z" fill="#d6b283"></path><path d="M0 384L15 391.3C30 398.7 60 413.3 90 411.5C120 409.7 150 391.3 180 391.3C210 391.3 240 409.7 270 412.5C300 415.3 330 402.7 360 398C390 393.3 420 396.7 450 394.3C480 392 510 384 540 377.8C570 371.7 600 367.3 630 368C660 368.7 690 374.3 720 377.2C750 380 780 380 810 380.3C840 380.7 870 381.3 885 381.7L900 382L900 601L885 601C870 601 840 601 810 601C780 601 750 601 720 601C690 601 660 601 630 601C600 601 570 601 540 601C510 601 480 601 450 601C420 601 390 601 360 601C330 601 300 601 270 601C240 601 210 601 180 601C150 601 120 601 90 601C60 601 30 601 15 601L0 601Z" fill="#c39f71"></path><path d="M0 403L15 402.7C30 402.3 60 401.7 90 403C120 404.3 150 407.7 180 414C210 420.3 240 429.7 270 435.3C300 441 330 443 360 446C390 449 420 453 450 446.3C480 439.7 510 422.3 540 420.3C570 418.3 600 431.7 630 434.8C660 438 690 431 720 430.3C750 429.7 780 435.3 810 434.5C840 433.7 870 426.3 885 422.7L900 419L900 601L885 601C870 601 840 601 810 601C780 601 750 601 720 601C690 601 660 601 630 601C600 601 570 601 540 601C510 601 480 601 450 601C420 601 390 601 360 601C330 601 300 601 270 601C240 601 210 601 180 601C150 601 120 601 90 601C60 601 30 601 15 601L0 601Z" fill="#b08c60"></path><path d="M0 453L15 454.3C30 455.7 60 458.3 90 458C120 457.7 150 454.3 180 455C210 455.7 240 460.3 270 461C300 461.7 330 458.3 360 454.2C390 450 420 445 450 444C480 443 510 446 540 446.3C570 446.7 600 444.3 630 446.7C660 449 690 456 720 461.3C750 466.7 780 470.3 810 474.7C840 479 870 484 885 486.5L900 489L900 601L885 601C870 601 840 601 810 601C780 601 750 601 720 601C690 601 660 601 630 601C600 601 570 601 540 601C510 601 480 601 450 601C420 601 390 601 360 601C330 601 300 601 270 601C240 601 210 601 180 601C150 601 120 601 90 601C60 601 30 601 15 601L0 601Z" fill="#9c7a4f"></path><path d="M0 482L15 487.3C30 492.7 60 503.3 90 505.3C120 507.3 150 500.7 180 500.7C210 500.7 240 507.3 270 505.8C300 504.3 330 494.7 360 491.3C390 488 420 491 450 494.2C480 497.3 510 500.7 540 503.8C570 507 600 510 630 509C660 508 690 503 720 502.3C750 501.7 780 505.3 810 504.2C840 503 870 497 885 494L900 491L900 601L885 601C870 601 840 601 810 601C780 601 750 601 720 601C690 601 660 601 630 601C600 601 570 601 540 601C510 601 480 601 450 601C420 601 390 601 360 601C330 601 300 601 270 601C240 601 210 601 180 601C150 601 120 601 90 601C60 601 30 601 15 601L0 601Z" fill="#8a683e"></path><path d="M0 536L15 530.8C30 525.7 60 515.3 90 514.2C120 513 150 521 180 523.7C210 526.3 240 523.7 270 521.5C300 519.3 330 517.7 360 517.7C390 517.7 420 519.3 450 518.5C480 517.7 510 514.3 540 516.3C570 518.3 600 525.7 630 524.8C660 524 690 515 720 510.3C750 505.7 780 505.3 810 508C840 510.7 870 516.3 885 519.2L900 522L900 601L885 601C870 601 840 601 810 601C780 601 750 601 720 601C690 601 660 601 630 601C600 601 570 601 540 601C510 601 480 601 450 601C420 601 390 601 360 601C330 601 300 601 270 601C240 601 210 601 180 601C150 601 120 601 90 601C60 601 30 601 15 601L0 601Z" fill="#77562e"></path><path d="M0 566L15 566C30 566 60 566 90 564.5C120 563 150 560 180 556.2C210 552.3 240 547.7 270 548.5C300 549.3 330 555.7 360 555.2C390 554.7 420 547.3 450 547C480 546.7 510 553.3 540 554.5C570 555.7 600 551.3 630 552C660 552.7 690 558.3 720 561.2C750 564 780 564 810 564.3C840 564.7 870 565.3 885 565.7L900 566L900 601L885 601C870 601 840 601 810 601C780 601 750 601 720 601C690 601 660 601 630 601C600 601 570 601 540 601C510 601 480 601 450 601C420 601 390 601 360 601C330 601 300 601 270 601C240 601 210 601 180 601C150 601 120 601 90 601C60 601 30 601 15 601L0 601Z" fill="#65451f"></path></svg>